<?xml version="1.0" standalone="no"?>
<!DOCTYPE svg PUBLIC "-//W3C//DTD SVG 1.1//EN" "http://www.w3.org/Graphics/SVG/1.1/DTD/svg11.dtd" >
<svg xmlns="http://www.w3.org/2000/svg" xmlns:xlink="http://www.w3.org/1999/xlink" version="1.1">
<metadata>
Created by FontForge 20201107 at Thu Dec 23 16:16:14 1999
 By Jimmy Wärting
(c) 2000 utopiafonts + channel 42. www.utopiafonts.com
</metadata>
<defs>
<font id="Beware" horiz-adv-x="1485" >
  <font-face 
    font-family="Beware"
    font-weight="400"
    font-stretch="normal"
    units-per-em="1000"
    panose-1="0 0 4 0 0 0 0 0 0 0"
    ascent="800"
    descent="-200"
    x-height="376"
    cap-height="393"
    bbox="-16 -142.043 1446 500"
    underline-thickness="20"
    underline-position="-143"
    unicode-range="U+0020-007E"
  />
<missing-glyph horiz-adv-x="500" 
d="M63 0v500h375v-500h-375zM125 63h250v375h-250v-375z" />
    <glyph glyph-name=".notdef" horiz-adv-x="500" 
d="M63 0v500h375v-500h-375zM125 63h250v375h-250v-375z" />
    <glyph glyph-name=".null" horiz-adv-x="0" 
 />
    <glyph glyph-name="nonmarkingreturn" horiz-adv-x="405" 
 />
    <glyph glyph-name="space" unicode=" " horiz-adv-x="405" 
 />
    <glyph glyph-name="exclam" unicode="!" horiz-adv-x="318" 
d="M107 139q-36 0 -70 11q-47 14 -47 43v146q0 29 47 43q34 11 70 11t70 -11q47 -14 47 -43v-146q0 -28 -47 -43q-34 -11 -70 -11zM107 -1q-36 0 -70 11q-47 14 -47 43v16q0 29 47 43q34 11 70 11t70 -11q47 -14 47 -43v-16q0 -28 -47 -43q-34 -11 -70 -11z" />
    <glyph glyph-name="quotedbl" unicode="&#x22;" horiz-adv-x="394" 
d="M152 332q8 -28 -2 -49l-47 -104q-10 -22 -30 -21q-22 1 -42 23q-16 19 -23 44q-8 27 1 48l47 105q10 21 30 20q22 -1 42 -23q17 -19 24 -43zM305 332q8 -28 -1 -49l-47 -104q-10 -22 -30 -21q-23 1 -42 23q-17 19 -24 44q-8 27 2 48l47 105q9 21 29 20q23 -1 43 -23
q16 -19 23 -43z" />
    <glyph glyph-name="numbersign" unicode="#" 
d="M831 445v-99h418q41 0 70.5 -29.5t29.5 -70.5v-77q0 -39 33 -70q30 -29 64 -30h-626q-54 -7 -117 -36q-72 -33 -72 -63v99h-387q-41 0 -70.5 29.5t-29.5 70.5v77q0 40 -31.5 70t-68.5 30h601q53 7 115 36q71 33 71 63zM1289 226q0 15 -23 22q-17 6 -34 6h-95
q-21 0 -21 -8q0 -9 21 -9h76q8 0 12.5 -2.5t5.5 -5.5v-7h-79q-57 0 -57 -27v-8q0 -28 57 -28h39q22 0 22 9q0 4 -7.5 6.5t-14.5 2.5h-21q-17 0 -17 8v12q0 3 5 5.5t12 2.5h43q8 0 12.5 -2.5t5.5 -5.5v-25q0 -13 29 -13t29 13v54zM1083 239q0 6 -9 10t-20 4q-30 0 -30 -14
v-68q0 -12 30 -14q12 1 20.5 4.5t8.5 9.5v68zM1011 223v7q0 24 -62 24h-73q-54 0 -56 -25q-1 -1 -1 -2v-54q0 -13 29 -13q28 0 29 13l1 59q0 5 17 5h43q18 0 18 -5v-11q0 -8 -18 -8h-24q-21 -1 -21 -9q0 -9 21 -9h40q57 0 57 28zM609 225v-39q0 -14 23 -22q17 -6 34 -6h80
q17 0 35 6q23 8 23 22v39q0 15 -23 22q-17 6 -35 6h-80q-57 0 -57 -28zM667 185v43q0 3 5 5.5t13 2.5h43q7 0 12 -2.5t5 -5.5v-43q0 -9 -17 -9h-43q-7 0 -12.5 2.5t-5.5 6.5zM574 234q27 0 27 8q0 3 -1 4l-4 1q-8 5 -22 5h-140q-27 0 -27 -10q0 -8 27 -8h41v-64
q0 -14 29 -14t29 14v64h41zM393 241q-1 13 -29 13q-29 0 -29 -13l-1 -56q0 -3 -4.5 -5.5t-12.5 -2.5h-31q-7 0 -12 2.5t-5 5.5v56q-1 13 -29 13q-30 0 -30 -13l1 -54q0 -28 57 -28h67q57 0 57 28z" />
    <glyph glyph-name="dollar" unicode="$" 
d="M831 445v-99h418q41 0 70.5 -29.5t29.5 -70.5v-77q0 -39 33 -70q30 -29 64 -30h-626q-54 -7 -117 -36q-72 -33 -72 -63v99h-387q-41 0 -70.5 29.5t-29.5 70.5v77q0 40 -31.5 70t-68.5 30h601q53 7 115 36q71 33 71 63zM1289 226q0 15 -23 22q-17 6 -34 6h-95
q-21 0 -21 -8q0 -9 21 -9h76q8 0 12.5 -2.5t5.5 -5.5v-7h-79q-57 0 -57 -27v-8q0 -28 57 -28h39q22 0 22 9q0 4 -7.5 6.5t-14.5 2.5h-21q-17 0 -17 8v12q0 3 5 5.5t12 2.5h43q8 0 12.5 -2.5t5.5 -5.5v-25q0 -13 29 -13t29 13v54zM1083 239q0 6 -9 10t-20 4q-30 0 -30 -14
v-68q0 -12 30 -14q12 1 20.5 4.5t8.5 9.5v68zM1011 223v7q0 24 -62 24h-73q-54 0 -56 -25q-1 -1 -1 -2v-54q0 -13 29 -13q28 0 29 13l1 59q0 5 17 5h43q18 0 18 -5v-11q0 -8 -18 -8h-24q-21 -1 -21 -9q0 -9 21 -9h40q57 0 57 28zM609 225v-39q0 -14 23 -22q17 -6 34 -6h80
q17 0 35 6q23 8 23 22v39q0 15 -23 22q-17 6 -35 6h-80q-57 0 -57 -28zM667 185v43q0 3 5 5.5t13 2.5h43q7 0 12 -2.5t5 -5.5v-43q0 -9 -17 -9h-43q-7 0 -12.5 2.5t-5.5 6.5zM574 234q27 0 27 8q0 3 -1 4l-4 1q-8 5 -22 5h-140q-27 0 -27 -10q0 -8 27 -8h41v-64
q0 -14 29 -14t29 14v64h41zM393 241q-1 13 -29 13q-29 0 -29 -13l-1 -56q0 -3 -4.5 -5.5t-12.5 -2.5h-31q-7 0 -12 2.5t-5 5.5v56q-1 13 -29 13q-30 0 -30 -13l1 -54q0 -28 57 -28h67q57 0 57 28z" />
    <glyph glyph-name="percent" unicode="%" 
d="M831 445v-99h418q41 0 70.5 -29.5t29.5 -70.5v-77q0 -39 33 -70q30 -29 64 -30h-626q-54 -7 -117 -36q-72 -33 -72 -63v99h-387q-41 0 -70.5 29.5t-29.5 70.5v77q0 40 -31.5 70t-68.5 30h601q53 7 115 36q71 33 71 63zM1289 226q0 15 -23 22q-17 6 -34 6h-95
q-21 0 -21 -8q0 -9 21 -9h76q8 0 12.5 -2.5t5.5 -5.5v-7h-79q-57 0 -57 -27v-8q0 -28 57 -28h39q22 0 22 9q0 4 -7.5 6.5t-14.5 2.5h-21q-17 0 -17 8v12q0 3 5 5.5t12 2.5h43q8 0 12.5 -2.5t5.5 -5.5v-25q0 -13 29 -13t29 13v54zM1083 239q0 6 -9 10t-20 4q-30 0 -30 -14
v-68q0 -12 30 -14q12 1 20.5 4.5t8.5 9.5v68zM1011 223v7q0 24 -62 24h-73q-54 0 -56 -25q-1 -1 -1 -2v-54q0 -13 29 -13q28 0 29 13l1 59q0 5 17 5h43q18 0 18 -5v-11q0 -8 -18 -8h-24q-21 -1 -21 -9q0 -9 21 -9h40q57 0 57 28zM609 225v-39q0 -14 23 -22q17 -6 34 -6h80
q17 0 35 6q23 8 23 22v39q0 15 -23 22q-17 6 -35 6h-80q-57 0 -57 -28zM667 185v43q0 3 5 5.5t13 2.5h43q7 0 12 -2.5t5 -5.5v-43q0 -9 -17 -9h-43q-7 0 -12.5 2.5t-5.5 6.5zM574 234q27 0 27 8q0 3 -1 4l-4 1q-8 5 -22 5h-140q-27 0 -27 -10q0 -8 27 -8h41v-64
q0 -14 29 -14t29 14v64h41zM393 241q-1 13 -29 13q-29 0 -29 -13l-1 -56q0 -3 -4.5 -5.5t-12.5 -2.5h-31q-7 0 -12 2.5t-5 5.5v56q-1 13 -29 13q-30 0 -30 -13l1 -54q0 -28 57 -28h67q57 0 57 28z" />
    <glyph glyph-name="ampersand" unicode="&#x26;" horiz-adv-x="674" 
d="M508 163h-84v-100q0 -28 -47 -43q-34 -11 -70 -11t-70 11q-47 14 -47 43v100h-1h-95q-53 0 -73 4q-36 7 -36 29q0 37 109 37h96v106q0 29 47 43q34 11 70 11t70 -11q47 -14 47 -43v-106h84q53 0 106 -26q3 -2 3 -11q0 -22 -36 -29q-20 -4 -73 -4z" />
    <glyph glyph-name="quotesingle" unicode="'" horiz-adv-x="240" 
d="M152 332q8 -28 -2 -49l-47 -104q-10 -22 -30 -21q-22 1 -42 23q-16 19 -23 44q-8 27 1 48l47 105q10 21 30 20q22 -1 42 -23q17 -19 24 -43z" />
    <glyph glyph-name="parenleft" unicode="(" horiz-adv-x="572" 
d="M481 18q28 11 28 26q0 17 -29 27l-56 9q-7 1 -88 14q-48 7 -70 20q-52 32 -52 84q0 53 52 85q38 24 158 36q20 1 56 8q30 11 30 27q0 17 -28 27t-58 10q-95 -2 -186 -15q-108 -16 -154 -42q-95 -54 -95 -134q0 -81 94 -135q48 -27 158 -44q103 -17 182 -13q21 2 58 10z
" />
    <glyph glyph-name="parenright" unicode=")" horiz-adv-x="586" 
d="M18 18q-28 11 -28 26q0 17 29 27l56 9q7 1 88 14q48 7 70 20q52 32 52 84q0 53 -52 85q-38 24 -158 36q-20 1 -56 8q-30 11 -30 27q0 17 28 27t58 10q95 -2 186 -15q108 -16 154 -42q95 -54 95 -134q0 -81 -94 -135q-48 -27 -158 -44q-103 -17 -182 -13q-21 2 -58 10z
" />
    <glyph glyph-name="asterisk" unicode="*" horiz-adv-x="674" 
d="M508 163h-84v-100q0 -28 -47 -43q-34 -11 -70 -11t-70 11q-47 14 -47 43v100h-1h-95q-53 0 -73 4q-36 7 -36 29q0 37 109 37h96v106q0 29 47 43q34 11 70 11t70 -11q47 -14 47 -43v-106h84q53 0 106 -26q3 -2 3 -11q0 -22 -36 -29q-20 -4 -73 -4z" />
    <glyph glyph-name="plus" unicode="+" horiz-adv-x="674" 
d="M508 163h-84v-100q0 -28 -47 -43q-34 -11 -70 -11t-70 11q-47 14 -47 43v100h-1h-95q-53 0 -73 4q-36 7 -36 29q0 37 109 37h96v106q0 29 47 43q34 11 70 11t70 -11q47 -14 47 -43v-106h84q53 0 106 -26q3 -2 3 -11q0 -22 -36 -29q-20 -4 -73 -4z" />
    <glyph glyph-name="comma" unicode="," horiz-adv-x="301" 
d="M219 32q12 -28 -3 -49l-70 -104q-15 -22 -45 -21t-58 20t-40 47q-12 27 2 48l71 105q14 21 44 20t58.5 -19.5t40.5 -46.5z" />
    <glyph glyph-name="hyphen" unicode="-" horiz-adv-x="515" 
d="M308 233q53 0 106 -26q3 -2 3 -11q0 -22 -36 -29q-20 -4 -73 -4h-214q-53 0 -73 4q-36 7 -36 29q0 37 109 37h214z" />
    <glyph glyph-name="hyphen" unicode="&#x2010;" horiz-adv-x="515" 
d="M308 233q53 0 106 -26q3 -2 3 -11q0 -22 -36 -29q-20 -4 -73 -4h-214q-53 0 -73 4q-36 7 -36 29q0 37 109 37h214z" />
    <glyph glyph-name="period" unicode="." horiz-adv-x="314" 
d="M107 -1q-36 0 -70 11q-47 14 -47 43v16q0 29 47 43q34 11 70 11t70 -11q47 -14 47 -43v-16q0 -28 -47 -43q-34 -11 -70 -11z" />
    <glyph glyph-name="slash" unicode="/" horiz-adv-x="619" 
d="M47 16q29 -8 60 -8q61 0 94 26l347 274q14 11 14 26q0 30 -49 46q-36 12 -74 12q-62 0 -95 -26l-346 -274q-14 -11 -14 -26q0 -33 63 -50z" />
    <glyph glyph-name="zero" unicode="0" horiz-adv-x="861" 
d="M548 9h-321q-72 0 -139 23q-91 31 -91 90v157q0 59 91 90q67 23 139 23h321q71 0 139 -23q91 -32 91 -90v-157q0 -58 -91 -90q-67 -23 -139 -23zM544 289q0 18 -28 27q-20 7 -42 7h-173q-22 0 -42 -7q-28 -9 -28 -27v-174q0 -17 28 -27q20 -7 42 -7h173q22 0 42 7
q28 10 28 27v174z" />
    <glyph glyph-name="one" unicode="1" horiz-adv-x="319" 
d="M107 9q-36 0 -70 11q-47 14 -47 43v276q0 29 47 43q34 11 70 11t70 -11q47 -14 47 -43v-276q0 -28 -47 -43q-34 -11 -70 -11z" />
    <glyph glyph-name="two" unicode="2" horiz-adv-x="758" 
d="M690 282q0 77 -153 101q-68 11 -206 11h-250q-26 0 -51 -7q-35 -10 -35 -29t35 -29q26 -7 51 -7h174q118 0 158 -6q52 -8 52 -35q0 -30 -71 -38q-22 -2 -90 -2q-121 0 -182 -12q-128 -25 -128 -99q0 -113 359 -113h251q24 0 50 7q36 11 36 29q0 19 -35 29q-26 7 -51 7
h-175q-120 0 -157 5q-53 8 -53 35q0 41 141 41q330 0 330 112z" />
    <glyph glyph-name="three" unicode="3" horiz-adv-x="764" 
d="M80 166h215q25 0 51 7q35 10 35 29t-35 29q-26 7 -51 7h-215q-25 0 -51 -7q-35 -10 -35 -29q0 -15 27 -25.5t59 -10.5zM80 9h251q123 0 222 37q137 52 137 155t-137 154q-99 37 -222 37h-250q-26 0 -51 -7q-35 -10 -35 -29t35 -29q26 -7 51 -7h174q77 0 133 -23
q77 -31 77 -97q0 -65 -78 -96q-56 -23 -132 -23h-175q-25 0 -51 -7q-35 -10 -35 -29q0 -15 27 -25.5t59 -10.5z" />
    <glyph glyph-name="four" unicode="4" horiz-adv-x="841" 
d="M235 236zM235 235l-1 107q0 28 -47 42q-34 11 -70 11q-37 0 -70 -10q-46 -15 -47 -43l-3 -144q0 -22 36 -29q20 -4 73 -4h275l-1 -102q0 -28 47 -43q34 -10 70 -10t70 10q47 15 47 43l1 102h55q53 0 73 4q36 7 36 29q0 10 -3 12q-55 27 -106 26l-55 -1l-1 107
q0 28 -47 42q-34 11 -70 11t-70 -10q-47 -15 -47 -43l1 -108z" />
    <glyph glyph-name="five" unicode="5" horiz-adv-x="760" 
d="M-6 282q0 77 153 101q68 11 206 11h250q26 0 51 -7q35 -10 35 -29t-35 -29q-26 -7 -51 -7h-174q-118 0 -158 -6q-52 -8 -52 -35q0 -30 71 -38q22 -2 90 -2q121 0 182 -12q128 -25 128 -99q0 -113 -359 -113h-251q-24 0 -50 7q-36 11 -36 29q0 19 35 29q26 7 51 7h175
q120 0 157 5q53 8 53 35q0 41 -141 41q-330 0 -330 112z" />
    <glyph glyph-name="six" unicode="6" horiz-adv-x="757" 
d="M465 119q0 -27 -53 -35q-11 -2 -21 -1q-65 5 -111 29q-61 32 -61 88q0 66 77 97q56 23 133 23h174q25 0 51 7q35 10 35 29t-35 29q-25 7 -51 7h-250q-123 0 -222 -37q-137 -51 -137 -154q0 -81 94 -135q101 -57 270 -57q332 0 332 111q0 74 -128 99q-61 12 -182 12
q-85 -3 -85 -36q0 -17 30 -27l56 -9q14 -1 49 -9t35 -31z" />
    <glyph glyph-name="seven" unicode="7" horiz-adv-x="744" 
d="M666 376q-33 17 -88 17h-474q-109 0 -109 -37q0 -22 36 -29q20 -4 73 -4h315l-179 -250q-3 -4 -3 -11q0 -25 28 -37q35 -15 82 -15t82 15q26 11 45 38l203 293q0 9 -2 11.5t-9 8.5z" />
    <glyph glyph-name="eight" unicode="8" horiz-adv-x="852" 
d="M467 196q22 0 42 -7q28 -10 28 -27v-47q0 -17 -28 -27q-20 -7 -42 -7h-169q-22 0 -42 7q-28 10 -28 27v47q0 17 28 27q20 7 42 7h169zM513 392h-261q-148 0 -213 -45q-37 -25 -37 -53q0 -47 46 -70q-54 -31 -54 -73v-29q0 -59 91 -90q67 -23 139 -23h317q72 0 139 23
q91 31 91 90v29q0 42 -54 73q46 23 46 70q0 28 -37 53q-65 45 -213 45zM469 323q70 0 70 -24v-9q0 -24 -70 -24h-173q-70 0 -70 24v9q0 24 70 24h173z" />
    <glyph glyph-name="nine" unicode="9" horiz-adv-x="764" 
d="M219 282q0 27 53 35q11 1 21 1q65 -5 111 -29q61 -32 61 -88q0 -66 -77 -97q-56 -23 -133 -23h-174q-25 0 -51 -7q-35 -10 -35 -29t35 -29q25 -7 51 -7h250q123 0 222 37q137 51 137 154q0 81 -94 134q-101 58 -270 58q-332 0 -332 -112q0 -74 128 -98q61 -12 182 -12
q85 2 85 36q0 17 -30 27l-56 9q-14 1 -49 9t-35 31z" />
    <glyph glyph-name="colon" unicode=":" horiz-adv-x="308" 
d="M107 -1q-36 0 -70 11q-47 14 -47 43v16q0 29 47 43q34 11 70 11t70 -11q47 -14 47 -43v-16q0 -28 -47 -43q-34 -11 -70 -11zM107 159q-36 0 -70 11q-47 14 -47 43v16q0 29 47 43q34 11 70 11t70 -11q47 -14 47 -43v-16q0 -28 -47 -43q-34 -11 -70 -11z" />
    <glyph glyph-name="semicolon" unicode=";" horiz-adv-x="305" 
d="M219 32q12 -28 -3 -49l-70 -104q-15 -22 -45 -21t-58 20t-40 47q-12 27 2 48l71 105q14 21 44 20t58.5 -19.5t40.5 -46.5zM107 159q-36 0 -70 11q-47 14 -47 43v16q0 29 47 43q34 11 70 11t70 -11q47 -14 47 -43v-16q0 -28 -47 -43q-34 -11 -70 -11z" />
    <glyph glyph-name="less" unicode="&#x3c;" horiz-adv-x="572" 
d="M481 18q28 11 28 26q0 17 -29 27l-56 9q-7 1 -88 14q-48 7 -70 20q-52 32 -52 84q0 53 52 85q38 24 158 36q20 1 56 8q30 11 30 27q0 17 -28 27t-58 10q-95 -2 -186 -15q-108 -16 -154 -42q-95 -54 -95 -134q0 -81 94 -135q48 -27 158 -44q103 -17 182 -13q21 2 58 10z
" />
    <glyph glyph-name="equal" unicode="=" horiz-adv-x="505" 
d="M308 303q53 0 106 -26q3 -2 3 -11q0 -22 -36 -29q-20 -4 -73 -4h-214q-53 0 -73 4q-36 7 -36 29q0 37 109 37h214zM308 203q53 0 106 -26q3 -2 3 -11q0 -22 -36 -29q-20 -4 -73 -4h-214q-53 0 -73 4q-36 7 -36 29q0 37 109 37h214z" />
    <glyph glyph-name="greater" unicode="&#x3e;" horiz-adv-x="586" 
d="M18 18q-28 11 -28 26q0 17 29 27l56 9q7 1 88 14q48 7 70 20q52 32 52 84q0 53 -52 85q-38 24 -158 36q-20 1 -56 8q-30 11 -30 27q0 17 28 27t58 10q95 -2 186 -15q108 -16 154 -42q95 -54 95 -134q0 -81 -94 -135q-48 -27 -158 -44q-103 -17 -182 -13q-21 2 -58 10z
" />
    <glyph glyph-name="question" unicode="?" 
d="M831 445v-99h418q41 0 70.5 -29.5t29.5 -70.5v-77q0 -39 33 -70q30 -29 64 -30h-626q-54 -7 -117 -36q-72 -33 -72 -63v99h-387q-41 0 -70.5 29.5t-29.5 70.5v77q0 40 -31.5 70t-68.5 30h601q53 7 115 36q71 33 71 63zM1289 226q0 15 -23 22q-17 6 -34 6h-95
q-21 0 -21 -8q0 -9 21 -9h76q8 0 12.5 -2.5t5.5 -5.5v-7h-79q-57 0 -57 -27v-8q0 -28 57 -28h39q22 0 22 9q0 4 -7.5 6.5t-14.5 2.5h-21q-17 0 -17 8v12q0 3 5 5.5t12 2.5h43q8 0 12.5 -2.5t5.5 -5.5v-25q0 -13 29 -13t29 13v54zM1083 239q0 6 -9 10t-20 4q-30 0 -30 -14
v-68q0 -12 30 -14q12 1 20.5 4.5t8.5 9.5v68zM1011 223v7q0 24 -62 24h-73q-54 0 -56 -25q-1 -1 -1 -2v-54q0 -13 29 -13q28 0 29 13l1 59q0 5 17 5h43q18 0 18 -5v-11q0 -8 -18 -8h-24q-21 -1 -21 -9q0 -9 21 -9h40q57 0 57 28zM609 225v-39q0 -14 23 -22q17 -6 34 -6h80
q17 0 35 6q23 8 23 22v39q0 15 -23 22q-17 6 -35 6h-80q-57 0 -57 -28zM667 185v43q0 3 5 5.5t13 2.5h43q7 0 12 -2.5t5 -5.5v-43q0 -9 -17 -9h-43q-7 0 -12.5 2.5t-5.5 6.5zM574 234q27 0 27 8q0 3 -1 4l-4 1q-8 5 -22 5h-140q-27 0 -27 -10q0 -8 27 -8h41v-64
q0 -14 29 -14t29 14v64h41zM393 241q-1 13 -29 13q-29 0 -29 -13l-1 -56q0 -3 -4.5 -5.5t-12.5 -2.5h-31q-7 0 -12 2.5t-5 5.5v56q-1 13 -29 13q-30 0 -30 -13l1 -54q0 -28 57 -28h67q57 0 57 28z" />
    <glyph glyph-name="at" unicode="@" 
d="M831 445v-99h418q41 0 70.5 -29.5t29.5 -70.5v-77q0 -39 33 -70q30 -29 64 -30h-626q-54 -7 -117 -36q-72 -33 -72 -63v99h-387q-41 0 -70.5 29.5t-29.5 70.5v77q0 40 -31.5 70t-68.5 30h601q53 7 115 36q71 33 71 63zM1289 226q0 15 -23 22q-17 6 -34 6h-95
q-21 0 -21 -8q0 -9 21 -9h76q8 0 12.5 -2.5t5.5 -5.5v-7h-79q-57 0 -57 -27v-8q0 -28 57 -28h39q22 0 22 9q0 4 -7.5 6.5t-14.5 2.5h-21q-17 0 -17 8v12q0 3 5 5.5t12 2.5h43q8 0 12.5 -2.5t5.5 -5.5v-25q0 -13 29 -13t29 13v54zM1083 239q0 6 -9 10t-20 4q-30 0 -30 -14
v-68q0 -12 30 -14q12 1 20.5 4.5t8.5 9.5v68zM1011 223v7q0 24 -62 24h-73q-54 0 -56 -25q-1 -1 -1 -2v-54q0 -13 29 -13q28 0 29 13l1 59q0 5 17 5h43q18 0 18 -5v-11q0 -8 -18 -8h-24q-21 -1 -21 -9q0 -9 21 -9h40q57 0 57 28zM609 225v-39q0 -14 23 -22q17 -6 34 -6h80
q17 0 35 6q23 8 23 22v39q0 15 -23 22q-17 6 -35 6h-80q-57 0 -57 -28zM667 185v43q0 3 5 5.5t13 2.5h43q7 0 12 -2.5t5 -5.5v-43q0 -9 -17 -9h-43q-7 0 -12.5 2.5t-5.5 6.5zM574 234q27 0 27 8q0 3 -1 4l-4 1q-8 5 -22 5h-140q-27 0 -27 -10q0 -8 27 -8h41v-64
q0 -14 29 -14t29 14v64h41zM393 241q-1 13 -29 13q-29 0 -29 -13l-1 -56q0 -3 -4.5 -5.5t-12.5 -2.5h-31q-7 0 -12 2.5t-5 5.5v56q-1 13 -29 13q-30 0 -30 -13l1 -54q0 -28 57 -28h67q57 0 57 28z" />
    <glyph glyph-name="A" unicode="A" horiz-adv-x="857" 
d="M537 264v25q0 18 -28 27q-20 7 -42 7h-307q-26 0 -50 6q-35 9 -35 28t34 28q23 7 49 7h383q72 0 139 -23q91 -31 91 -90v-216q0 -28 -47 -43q-34 -11 -70 -11t-70 11q-47 14 -47 43v99q0 17 -28 27q-20 7 -42 7h-173q-22 0 -42 -7q-28 -10 -28 -27v-47q0 -17 28 -27
q20 -7 42 -7h85q25 0 51 -7q35 -10 35 -29q0 -18 -35 -29q-26 -7 -51 -7h-159q-72 0 -139 23q-91 31 -91 90v30q0 58 91 90q67 22 139 22h317z" />
    <glyph glyph-name="B" unicode="B" horiz-adv-x="852" 
d="M541 9h-159q-25 0 -51 7q-35 11 -35 29q0 19 35 29q26 7 51 7h85q22 0 42 7q28 10 28 27v47q0 17 -28 27q-20 7 -42 7h-173q-22 0 -42 -7q-28 -10 -28 -27v-99q0 -29 -47 -43q-34 -11 -70 -11t-70 11q-47 14 -47 43v216q0 1 1 8q8 55 95 84q64 21 134 21h293
q148 0 213 -45q37 -25 37 -53q0 -47 -46 -70q54 -31 54 -73v-29q0 -59 -91 -90q-67 -23 -139 -23zM539 299q0 24 -70 24h-173q-70 0 -70 -24v-9q0 -24 70 -24h173q70 0 70 24v9z" />
    <glyph glyph-name="C" unicode="C" horiz-adv-x="724" 
d="M598 8h-250q-123 0 -222 37q-137 52 -137 155q0 102 137 153q100 38 221 38h251q26 0 51 -7q35 -10 35 -29t-35 -29q-26 -7 -51 -7h-174q-77 0 -133 -23q-77 -31 -77 -97t77 -97q55 -22 133 -22h175q26 0 50 -7q35 -10 35 -29q0 -18 -36 -29q-25 -7 -50 -7z" />
    <glyph glyph-name="D" unicode="D" horiz-adv-x="857" 
d="M424 9h-96q-25 0 -51 7q-35 10 -35 29t35 29q26 7 51 7h20q77 0 133 23q77 31 77 97q0 67 -76 99q-55 23 -132 23h-58q-22 0 -42 -7q-28 -9 -28 -27v-226q0 -29 -47 -43q-34 -11 -70 -11t-70 11q-47 14 -47 43v216q0 59 91 90q67 23 139 23h207q122 0 221 -38
q137 -51 137 -154q0 -102 -138 -154q-99 -37 -221 -37z" />
    <glyph glyph-name="E" unicode="E" horiz-adv-x="752" 
d="M604 166h-215q-25 0 -51 7q-35 10 -35 29t35 29q26 7 51 7h215q25 0 51 -7q35 -10 35 -29q0 -15 -27 -25.5t-59 -10.5zM604 9h-251q-123 0 -222 37q-137 52 -137 155t137 154q99 37 222 37h250q26 0 51 -7q35 -10 35 -29t-35 -29q-26 -7 -51 -7h-174q-77 0 -133 -23
q-77 -31 -77 -97q0 -65 78 -96q56 -23 132 -23h175q25 0 51 -7q35 -10 35 -29q0 -15 -27 -25.5t-59 -10.5z" />
    <glyph glyph-name="F" unicode="F" horiz-adv-x="731" 
d="M600 165h-215q-25 0 -51 7q-35 11 -35 29q0 19 35 29q26 7 51 7h215q25 0 51 -7q35 -10 35 -29q0 -15 -27 -25.5t-59 -10.5zM599 319h-174q-72 0 -128 -22q-75 -31 -75 -93l1 -142q0 -28 -47 -43q-34 -10 -70 -10t-70 10q-47 15 -47 43v142q0 102 138 152q99 35 222 35
h250q26 0 51 -7q35 -10 35 -29q0 -16 -26.5 -26t-59.5 -10z" />
    <glyph glyph-name="G" unicode="G" horiz-adv-x="763" 
d="M460 9h-107q-123 0 -222 37q-137 52 -137 155t137 154q99 37 222 37h250q26 0 51 -7q35 -10 35 -29t-35 -29q-26 -7 -51 -7h-174q-77 0 -133 -23q-77 -31 -77 -97q0 -56 61 -88q46 -24 111 -29q65 1 65 33v68q0 28 47 43q34 10 70 10t70 -10q47 -15 47 -43v-62
q0 -58 -91 -90q-67 -23 -139 -23z" />
    <glyph glyph-name="H" unicode="H" horiz-adv-x="819" 
d="M607 9q-36 0 -70 11q-47 14 -47 43v276q0 29 47 43q34 11 70 11t70 -11q47 -14 47 -43v-276q0 -28 -47 -43q-34 -11 -70 -11zM370 166h-146v-103q0 -29 -47 -43q-34 -11 -70 -11t-70 11q-47 14 -47 43v276q0 29 47 43q34 11 70 11t70 -11q47 -14 47 -43v-101h146
q25 0 51 -7q35 -10 35 -29q0 -15 -27 -25.5t-59 -10.5z" />
    <glyph glyph-name="I" unicode="I" horiz-adv-x="319" 
d="M107 9q-36 0 -70 11q-47 14 -47 43v276q0 29 47 43q34 11 70 11t70 -11q47 -14 47 -43v-276q0 -28 -47 -43q-34 -11 -70 -11z" />
    <glyph glyph-name="J" unicode="J" horiz-adv-x="810" 
d="M724 247l-2 -124q-1 -59 -92 -90q-66 -23 -138 -23h-271q-72 0 -137 23q-88 31 -93 89l-1 12v44q0 28 47 43q34 10 70 10t70 -10q47 -15 47 -43v-43l1 -18q1 -18 28 -28q20 -7 42 -7h123q22 0 42 7q28 10 28 27l2 223q0 29 47 43q33 11 70 11q36 0 70 -11q47 -14 47 -43
v-92z" />
    <glyph glyph-name="K" unicode="K" horiz-adv-x="807" 
d="M700 108q36 -15 36 -40q0 -22 -34 -39q-25 -12 -53 -17q-58 -9 -106 11l-319 132v-92q0 -28 -47 -43q-34 -11 -70 -11t-70 11q-47 14 -47 43v276q0 29 47 43q34 11 70 11t70 -11q47 -14 47 -43v-101l319 132q48 20 106 11q28 -5 53 -17q34 -17 34 -39q0 -25 -36 -40
l-212 -88z" />
    <glyph glyph-name="L" unicode="L" horiz-adv-x="705" 
d="M598 9h-250q-122 0 -221 37q-137 52 -137 155v138q0 28 47 43q34 10 70 10t70 -10q47 -15 47 -43v-138q0 -67 71 -98q52 -22 129 -22h175q26 0 50 -7q35 -10 35 -29t-36 -29q-25 -7 -50 -7z" />
    <glyph glyph-name="M" unicode="M" horiz-adv-x="1139" 
d="M55 16q29 -8 62 -8q71 0 95 28l188 219l108 -117q18 -20 63 -20q25 0 49 8q32 10 32 30q0 10 -7 17l-189 188q-6 5 -15 9q-37 22 -96 22q-69 0 -94 -28l-246 -274q-11 -12 -11 -24q0 -33 61 -50zM606 310l247 -274q25 -28 94 -28q39 0 74 12q49 15 49 46q0 12 -11 24
l-246 274q-25 28 -94 28q-39 0 -74 -12q-49 -15 -49 -46q0 -13 10 -24z" />
    <glyph glyph-name="N" unicode="N" horiz-adv-x="808" 
d="M724 156l-2 124q-1 59 -92 90q-66 23 -138 23h-271q-72 0 -139 -23q-91 -31 -91 -90l-1 -216q0 -29 47 -43q34 -11 70 -11t70 11q47 14 47 43l1 223q0 17 28 27q20 7 42 7h123q22 0 42 -7q28 -10 28 -27l2 -223q0 -29 47 -43q33 -11 70 -11q36 0 70 11q47 14 47 43v92z
" />
    <glyph glyph-name="O" unicode="O" horiz-adv-x="861" 
d="M548 9h-321q-72 0 -139 23q-91 31 -91 90v157q0 59 91 90q67 23 139 23h321q71 0 139 -23q91 -32 91 -90v-157q0 -58 -91 -90q-67 -23 -139 -23zM544 289q0 18 -28 27q-20 7 -42 7h-173q-22 0 -42 -7q-28 -9 -28 -27v-174q0 -17 28 -27q20 -7 42 -7h173q22 0 42 7
q28 10 28 27v174z" />
    <glyph glyph-name="P" unicode="P" horiz-adv-x="808" 
d="M539 293zM224 63q0 -29 -47 -43q-33 -11 -70 -11q-36 0 -70 11q-47 14 -47 43v216q0 1 1 8q8 55 95 84q64 21 134 21h293q148 0 213 -45q37 -25 37 -53v-30q0 -58 -91 -89q-67 -23 -139 -23h-159q-25 0 -51 7q-35 10 -35 29t35 29q25 7 51 7h95q22 0 42 7q28 10 28 28v40
q0 24 -70 24h-173q-70 0 -70 -24v-5z" />
    <glyph glyph-name="Q" unicode="Q" horiz-adv-x="862" 
d="M401 83l-61 49q-9 7 -9 16q0 19 31 30q23 7 48 7q40 0 61 -16l72 -57q1 3 1 6v173q0 18 -28 27q-20 7 -42 7h-173q-22 0 -42 -7q-28 -9 -28 -27v-173q0 -18 28 -28q20 -7 42 -7h100zM662 -56q-18 -5 -38 -5q-40 0 -61 16l-71 56h-265q-72 0 -139 23q-91 31 -91 90v157
q0 59 91 90q67 23 139 23h321q71 0 139 -23q91 -32 91 -90v-157q0 -47 -67 -80q-27 -13 -57 -20l40 -32q9 -7 9 -16q0 -21 -41 -32z" />
    <glyph glyph-name="R" unicode="R" horiz-adv-x="849" 
d="M539 293zM288 188q0 18 35 28q25 7 51 8h95q22 0 42 7q28 9 28 27v40q0 25 -70 25h-173q-70 0 -70 -25v-4l-2 -232q0 -28 -47 -43q-33 -10 -70 -10q-36 0 -70 10q-47 15 -47 43v217q0 1 1 8q8 55 95 83q64 22 134 22h293q148 0 213 -45q37 -25 37 -53v-30q0 -47 -67 -80
q-27 -13 -67 -22l104 -55q32 -17 32 -41q0 -29 -51 -45q-38 -13 -74 -13q-41 0 -68 15l-258 139q-26 11 -26 26z" />
    <glyph glyph-name="S" unicode="S" horiz-adv-x="760" 
d="M-6 282q0 77 153 101q68 11 206 11h250q26 0 51 -7q35 -10 35 -29t-35 -29q-26 -7 -51 -7h-174q-118 0 -158 -6q-52 -8 -52 -35q0 -30 71 -38q22 -2 90 -2q121 0 182 -12q128 -25 128 -99q0 -113 -359 -113h-251q-24 0 -50 7q-36 11 -36 29q0 19 35 29q26 7 51 7h175
q120 0 157 5q53 8 53 35q0 41 -141 41q-330 0 -330 112z" />
    <glyph glyph-name="T" unicode="T" horiz-adv-x="822" 
d="M270 63q0 -28 47 -43q34 -10 70 -10t70 10q47 15 47 43l-1 260h165q53 0 73 4q36 7 36 29q0 9 -3 11q-53 26 -106 26h-564q-109 0 -109 -37q0 -22 36 -29q20 -4 73 -4h165z" />
    <glyph glyph-name="U" unicode="U" horiz-adv-x="810" 
d="M724 247l-2 -124q-1 -59 -92 -90q-66 -23 -138 -23h-271q-72 0 -139 23q-91 31 -91 90l-1 216q0 29 47 43q34 11 70 11t70 -11q47 -14 47 -43l1 -223q0 -17 28 -27q20 -7 42 -7h123q22 0 42 7q28 10 28 27l2 223q0 29 47 43q33 11 70 11q36 0 70 -11q47 -14 47 -43v-92z
" />
    <glyph glyph-name="V" unicode="V" horiz-adv-x="776" 
d="M345 8q-69 0 -94 28l-246 274q-11 12 -11 24q0 31 49 46q35 12 74 12q69 0 94 -28l141 -156l141 156q25 28 94 28q39 0 74 -12q49 -15 49 -46q0 -12 -11 -24l-246 -274q-25 -28 -94 -28h-14z" />
    <glyph glyph-name="W" unicode="W" horiz-adv-x="1136" 
d="M1059 310l-246 -274q-25 -28 -94 -28q-55 0 -100 24q-8 4 -11 7l-189 188q-7 7 -7 17q0 20 32 30q24 8 49 8q45 0 63 -20l108 -117l188 219q24 28 95 28q39 0 74 -12q49 -15 49 -46q0 -12 -11 -24zM408 16q-29 -8 -63 -8q-69 0 -94 28l-246 274q-11 12 -11 24q0 31 49 46
q35 12 74 12q69 0 94 -28l247 -274q10 -11 10 -24q0 -34 -60 -50z" />
    <glyph glyph-name="X" unicode="X" horiz-adv-x="864" 
d="M180 365l197 -98l216 98q45 21 106 11q28 -5 53 -17q34 -17 34 -39q0 -25 -36 -40l-212 -88l212 -88q36 -15 36 -41q0 -21 -34 -38q-25 -13 -53 -17q-61 -10 -106 10l-216 98l-197 -98q-42 -20 -106 -10q-28 4 -53 17q-34 17 -34 38q0 24 36 41l192 88l-192 88
q-36 16 -36 40q0 22 34 39q25 12 53 17q65 10 106 -11z" />
    <glyph glyph-name="Y" unicode="Y" horiz-adv-x="770" 
d="M347 9q-36 0 -70 11q-47 14 -47 43v87l-225 161q-11 7 -11 23q0 31 49 47q35 11 74 11q57 0 94 -28l141 -107l141 107q37 28 94 28q39 0 74 -11q49 -16 49 -47q0 -16 -11 -23l-235 -169v-79q0 -28 -47 -43q-34 -11 -70 -11z" />
    <glyph glyph-name="Z" unicode="Z" horiz-adv-x="683" 
d="M67 17q-63 17 -63 50q0 14 14 25l291 231h-205q-53 0 -73 3q-36 8 -36 29q0 38 109 38h344q58 0 96 -17t38 -42q0 -14 -14 -25l-291 -230h231q53 0 106 -25q3 -2 3 -12q0 -22 -36 -29q-20 -4 -73 -4h-381q-31 0 -60 8z" />
    <glyph glyph-name="bracketleft" unicode="[" horiz-adv-x="572" 
d="M481 18q28 11 28 26q0 17 -29 27l-56 9q-7 1 -88 14q-48 7 -70 20q-52 32 -52 84q0 53 52 85q38 24 158 36q20 1 56 8q30 11 30 27q0 17 -28 27t-58 10q-95 -2 -186 -15q-108 -16 -154 -42q-95 -54 -95 -134q0 -81 94 -135q48 -27 158 -44q103 -17 182 -13q21 2 58 10z
" />
    <glyph glyph-name="backslash" unicode="\" horiz-adv-x="626" 
d="M499 16q-29 -8 -60 -8q-61 0 -94 26l-347 274q-14 11 -14 26q0 30 49 46q36 12 74 12q62 0 95 -26l346 -274q14 -11 14 -26q0 -33 -63 -50z" />
    <glyph glyph-name="bracketright" unicode="]" horiz-adv-x="586" 
d="M18 18q-28 11 -28 26q0 17 29 27l56 9q7 1 88 14q48 7 70 20q52 32 52 84q0 53 -52 85q-38 24 -158 36q-20 1 -56 8q-30 11 -30 27q0 17 28 27t58 10q95 -2 186 -15q108 -16 154 -42q95 -54 95 -134q0 -81 -94 -135q-48 -27 -158 -44q-103 -17 -182 -13q-21 2 -58 10z
" />
    <glyph glyph-name="asciicircum" unicode="^" 
d="M831 445v-99h418q41 0 70.5 -29.5t29.5 -70.5v-77q0 -39 33 -70q30 -29 64 -30h-626q-54 -7 -117 -36q-72 -33 -72 -63v99h-387q-41 0 -70.5 29.5t-29.5 70.5v77q0 40 -31.5 70t-68.5 30h601q53 7 115 36q71 33 71 63zM1289 226q0 15 -23 22q-17 6 -34 6h-95
q-21 0 -21 -8q0 -9 21 -9h76q8 0 12.5 -2.5t5.5 -5.5v-7h-79q-57 0 -57 -27v-8q0 -28 57 -28h39q22 0 22 9q0 4 -7.5 6.5t-14.5 2.5h-21q-17 0 -17 8v12q0 3 5 5.5t12 2.5h43q8 0 12.5 -2.5t5.5 -5.5v-25q0 -13 29 -13t29 13v54zM1083 239q0 6 -9 10t-20 4q-30 0 -30 -14
v-68q0 -12 30 -14q12 1 20.5 4.5t8.5 9.5v68zM1011 223v7q0 24 -62 24h-73q-54 0 -56 -25q-1 -1 -1 -2v-54q0 -13 29 -13q28 0 29 13l1 59q0 5 17 5h43q18 0 18 -5v-11q0 -8 -18 -8h-24q-21 -1 -21 -9q0 -9 21 -9h40q57 0 57 28zM609 225v-39q0 -14 23 -22q17 -6 34 -6h80
q17 0 35 6q23 8 23 22v39q0 15 -23 22q-17 6 -35 6h-80q-57 0 -57 -28zM667 185v43q0 3 5 5.5t13 2.5h43q7 0 12 -2.5t5 -5.5v-43q0 -9 -17 -9h-43q-7 0 -12.5 2.5t-5.5 6.5zM574 234q27 0 27 8q0 3 -1 4l-4 1q-8 5 -22 5h-140q-27 0 -27 -10q0 -8 27 -8h41v-64
q0 -14 29 -14t29 14v64h41zM393 241q-1 13 -29 13q-29 0 -29 -13l-1 -56q0 -3 -4.5 -5.5t-12.5 -2.5h-31q-7 0 -12 2.5t-5 5.5v56q-1 13 -29 13q-30 0 -30 -13l1 -54q0 -28 57 -28h67q57 0 57 28z" />
    <glyph glyph-name="underscore" unicode="_" horiz-adv-x="599" 
d="M408 43q53 0 106 -26q3 -2 3 -11q0 -22 -36 -29q-20 -4 -73 -4h-314q-53 0 -73 4q-36 7 -36 29q0 37 109 37h314z" />
    <glyph glyph-name="grave" unicode="`" horiz-adv-x="241" 
d="M8 332q-8 -28 1 -49l47 -104q10 -22 30 -21q23 1 42 23q17 19 24 44q8 27 -2 48l-47 105q-9 21 -29 20q-23 -1 -43 -23q-16 -19 -23 -43z" />
    <glyph glyph-name="a" unicode="a" horiz-adv-x="857" 
d="M537 264v25q0 18 -28 27q-20 7 -42 7h-307q-26 0 -50 6q-35 9 -35 28t34 28q23 7 49 7h383q72 0 139 -23q91 -31 91 -90v-216q0 -28 -47 -43q-34 -11 -70 -11t-70 11q-47 14 -47 43v99q0 17 -28 27q-20 7 -42 7h-173q-22 0 -42 -7q-28 -10 -28 -27v-47q0 -17 28 -27
q20 -7 42 -7h85q25 0 51 -7q35 -10 35 -29q0 -18 -35 -29q-26 -7 -51 -7h-159q-72 0 -139 23q-91 31 -91 90v30q0 58 91 90q67 22 139 22h317z" />
    <glyph glyph-name="b" unicode="b" horiz-adv-x="852" 
d="M541 9h-159q-25 0 -51 7q-35 11 -35 29q0 19 35 29q26 7 51 7h85q22 0 42 7q28 10 28 27v47q0 17 -28 27q-20 7 -42 7h-173q-22 0 -42 -7q-28 -10 -28 -27v-99q0 -29 -47 -43q-34 -11 -70 -11t-70 11q-47 14 -47 43v216q0 1 1 8q8 55 95 84q64 21 134 21h293
q148 0 213 -45q37 -25 37 -53q0 -47 -46 -70q54 -31 54 -73v-29q0 -59 -91 -90q-67 -23 -139 -23zM539 299q0 24 -70 24h-173q-70 0 -70 -24v-9q0 -24 70 -24h173q70 0 70 24v9z" />
    <glyph glyph-name="c" unicode="c" horiz-adv-x="724" 
d="M598 8h-250q-123 0 -222 37q-137 52 -137 155q0 102 137 153q100 38 221 38h251q26 0 51 -7q35 -10 35 -29t-35 -29q-26 -7 -51 -7h-174q-77 0 -133 -23q-77 -31 -77 -97t77 -97q55 -22 133 -22h175q26 0 50 -7q35 -10 35 -29q0 -18 -36 -29q-25 -7 -50 -7z" />
    <glyph glyph-name="d" unicode="d" horiz-adv-x="857" 
d="M424 9h-96q-25 0 -51 7q-35 10 -35 29t35 29q26 7 51 7h20q77 0 133 23q77 31 77 97q0 67 -76 99q-55 23 -132 23h-58q-22 0 -42 -7q-28 -9 -28 -27v-226q0 -29 -47 -43q-34 -11 -70 -11t-70 11q-47 14 -47 43v216q0 59 91 90q67 23 139 23h207q122 0 221 -38
q137 -51 137 -154q0 -102 -138 -154q-99 -37 -221 -37z" />
    <glyph glyph-name="e" unicode="e" horiz-adv-x="752" 
d="M604 166h-215q-25 0 -51 7q-35 10 -35 29t35 29q26 7 51 7h215q25 0 51 -7q35 -10 35 -29q0 -15 -27 -25.5t-59 -10.5zM604 9h-251q-123 0 -222 37q-137 52 -137 155t137 154q99 37 222 37h250q26 0 51 -7q35 -10 35 -29t-35 -29q-26 -7 -51 -7h-174q-77 0 -133 -23
q-77 -31 -77 -97q0 -65 78 -96q56 -23 132 -23h175q25 0 51 -7q35 -10 35 -29q0 -15 -27 -25.5t-59 -10.5z" />
    <glyph glyph-name="f" unicode="f" horiz-adv-x="731" 
d="M600 165h-215q-25 0 -51 7q-35 11 -35 29q0 19 35 29q26 7 51 7h215q25 0 51 -7q35 -10 35 -29q0 -15 -27 -25.5t-59 -10.5zM599 319h-174q-72 0 -128 -22q-75 -31 -75 -93l1 -142q0 -28 -47 -43q-34 -10 -70 -10t-70 10q-47 15 -47 43v142q0 102 138 152q99 35 222 35
h250q26 0 51 -7q35 -10 35 -29q0 -16 -26.5 -26t-59.5 -10z" />
    <glyph glyph-name="g" unicode="g" horiz-adv-x="763" 
d="M460 9h-107q-123 0 -222 37q-137 52 -137 155t137 154q99 37 222 37h250q26 0 51 -7q35 -10 35 -29t-35 -29q-26 -7 -51 -7h-174q-77 0 -133 -23q-77 -31 -77 -97q0 -56 61 -88q46 -24 111 -29q65 1 65 33v68q0 28 47 43q34 10 70 10t70 -10q47 -15 47 -43v-62
q0 -58 -91 -90q-67 -23 -139 -23z" />
    <glyph glyph-name="h" unicode="h" horiz-adv-x="819" 
d="M607 9q-36 0 -70 11q-47 14 -47 43v276q0 29 47 43q34 11 70 11t70 -11q47 -14 47 -43v-276q0 -28 -47 -43q-34 -11 -70 -11zM370 166h-146v-103q0 -29 -47 -43q-34 -11 -70 -11t-70 11q-47 14 -47 43v276q0 29 47 43q34 11 70 11t70 -11q47 -14 47 -43v-101h146
q25 0 51 -7q35 -10 35 -29q0 -15 -27 -25.5t-59 -10.5z" />
    <glyph glyph-name="i" unicode="i" horiz-adv-x="319" 
d="M107 9q-36 0 -70 11q-47 14 -47 43v276q0 29 47 43q34 11 70 11t70 -11q47 -14 47 -43v-276q0 -28 -47 -43q-34 -11 -70 -11z" />
    <glyph glyph-name="j" unicode="j" horiz-adv-x="810" 
d="M724 247l-2 -124q-1 -59 -92 -90q-66 -23 -138 -23h-271q-72 0 -137 23q-88 31 -93 89l-1 12v44q0 28 47 43q34 10 70 10t70 -10q47 -15 47 -43v-43l1 -18q1 -18 28 -28q20 -7 42 -7h123q22 0 42 7q28 10 28 27l2 223q0 29 47 43q33 11 70 11q36 0 70 -11q47 -14 47 -43
v-92z" />
    <glyph glyph-name="k" unicode="k" horiz-adv-x="807" 
d="M700 108q36 -15 36 -40q0 -22 -34 -39q-25 -12 -53 -17q-58 -9 -106 11l-319 132v-92q0 -28 -47 -43q-34 -11 -70 -11t-70 11q-47 14 -47 43v276q0 29 47 43q34 11 70 11t70 -11q47 -14 47 -43v-101l319 132q48 20 106 11q28 -5 53 -17q34 -17 34 -39q0 -25 -36 -40
l-212 -88z" />
    <glyph glyph-name="l" unicode="l" horiz-adv-x="705" 
d="M598 9h-250q-122 0 -221 37q-137 52 -137 155v138q0 28 47 43q34 10 70 10t70 -10q47 -15 47 -43v-138q0 -67 71 -98q52 -22 129 -22h175q26 0 50 -7q35 -10 35 -29t-36 -29q-25 -7 -50 -7z" />
    <glyph glyph-name="m" unicode="m" horiz-adv-x="1139" 
d="M55 16q29 -8 62 -8q71 0 95 28l188 219l108 -117q18 -20 63 -20q25 0 49 8q32 10 32 30q0 10 -7 17l-189 188q-6 5 -15 9q-37 22 -96 22q-69 0 -94 -28l-246 -274q-11 -12 -11 -24q0 -33 61 -50zM606 310l247 -274q25 -28 94 -28q39 0 74 12q49 15 49 46q0 12 -11 24
l-246 274q-25 28 -94 28q-39 0 -74 -12q-49 -15 -49 -46q0 -13 10 -24z" />
    <glyph glyph-name="n" unicode="n" horiz-adv-x="810" 
d="M724 156l-2 124q-1 59 -92 90q-66 23 -138 23h-271q-72 0 -139 -23q-91 -31 -91 -90l-1 -216q0 -29 47 -43q34 -11 70 -11t70 11q47 14 47 43l1 223q0 17 28 27q20 7 42 7h123q22 0 42 -7q28 -10 28 -27l2 -223q0 -29 47 -43q33 -11 70 -11q36 0 70 11q47 14 47 43v92z
" />
    <glyph glyph-name="o" unicode="o" horiz-adv-x="861" 
d="M548 9h-321q-72 0 -139 23q-91 31 -91 90v157q0 59 91 90q67 23 139 23h321q71 0 139 -23q91 -32 91 -90v-157q0 -58 -91 -90q-67 -23 -139 -23zM544 289q0 18 -28 27q-20 7 -42 7h-173q-22 0 -42 -7q-28 -9 -28 -27v-174q0 -17 28 -27q20 -7 42 -7h173q22 0 42 7
q28 10 28 27v174z" />
    <glyph glyph-name="p" unicode="p" horiz-adv-x="808" 
d="M539 293zM224 63q0 -29 -47 -43q-33 -11 -70 -11q-36 0 -70 11q-47 14 -47 43v216q0 1 1 8q8 55 95 84q64 21 134 21h293q148 0 213 -45q37 -25 37 -53v-30q0 -58 -91 -89q-67 -23 -139 -23h-159q-25 0 -51 7q-35 10 -35 29t35 29q25 7 51 7h95q22 0 42 7q28 10 28 28v40
q0 24 -70 24h-173q-70 0 -70 -24v-5z" />
    <glyph glyph-name="q" unicode="q" horiz-adv-x="862" 
d="M401 83l-61 49q-9 7 -9 16q0 19 31 30q23 7 48 7q40 0 61 -16l72 -57q1 3 1 6v173q0 18 -28 27q-20 7 -42 7h-173q-22 0 -42 -7q-28 -9 -28 -27v-173q0 -18 28 -28q20 -7 42 -7h100zM662 -56q-18 -5 -38 -5q-40 0 -61 16l-71 56h-265q-72 0 -139 23q-91 31 -91 90v157
q0 59 91 90q67 23 139 23h321q71 0 139 -23q91 -32 91 -90v-157q0 -47 -67 -80q-27 -13 -57 -20l40 -32q9 -7 9 -16q0 -21 -41 -32z" />
    <glyph glyph-name="r" unicode="r" horiz-adv-x="849" 
d="M539 293zM288 188q0 18 35 28q25 7 51 8h95q22 0 42 7q28 9 28 27v40q0 25 -70 25h-173q-70 0 -70 -25v-4l-2 -232q0 -28 -47 -43q-33 -10 -70 -10q-36 0 -70 10q-47 15 -47 43v217q0 1 1 8q8 55 95 83q64 22 134 22h293q148 0 213 -45q37 -25 37 -53v-30q0 -47 -67 -80
q-27 -13 -67 -22l104 -55q32 -17 32 -41q0 -29 -51 -45q-38 -13 -74 -13q-41 0 -68 15l-258 139q-26 11 -26 26z" />
    <glyph glyph-name="s" unicode="s" horiz-adv-x="760" 
d="M-6 282q0 77 153 101q68 11 206 11h250q26 0 51 -7q35 -10 35 -29t-35 -29q-26 -7 -51 -7h-174q-118 0 -158 -6q-52 -8 -52 -35q0 -30 71 -38q22 -2 90 -2q121 0 182 -12q128 -25 128 -99q0 -113 -359 -113h-251q-24 0 -50 7q-36 11 -36 29q0 19 35 29q26 7 51 7h175
q120 0 157 5q53 8 53 35q0 41 -141 41q-330 0 -330 112z" />
    <glyph glyph-name="t" unicode="t" horiz-adv-x="822" 
d="M270 63q0 -28 47 -43q34 -10 70 -10t70 10q47 15 47 43l-1 260h165q53 0 73 4q36 7 36 29q0 9 -3 11q-53 26 -106 26h-564q-109 0 -109 -37q0 -22 36 -29q20 -4 73 -4h165z" />
    <glyph glyph-name="u" unicode="u" horiz-adv-x="810" 
d="M724 247l-2 -124q-1 -59 -92 -90q-66 -23 -138 -23h-271q-72 0 -139 23q-91 31 -91 90l-1 216q0 29 47 43q34 11 70 11t70 -11q47 -14 47 -43l1 -223q0 -17 28 -27q20 -7 42 -7h123q22 0 42 7q28 10 28 27l2 223q0 29 47 43q33 11 70 11q36 0 70 -11q47 -14 47 -43v-92z
" />
    <glyph glyph-name="v" unicode="v" horiz-adv-x="776" 
d="M345 8q-69 0 -94 28l-246 274q-11 12 -11 24q0 31 49 46q35 12 74 12q69 0 94 -28l141 -156l141 156q25 28 94 28q39 0 74 -12q49 -15 49 -46q0 -12 -11 -24l-246 -274q-25 -28 -94 -28h-14z" />
    <glyph glyph-name="w" unicode="w" horiz-adv-x="1136" 
d="M1059 310l-246 -274q-25 -28 -94 -28q-55 0 -100 24q-8 4 -11 7l-189 188q-7 7 -7 17q0 20 32 30q24 8 49 8q45 0 63 -20l108 -117l188 219q24 28 95 28q39 0 74 -12q49 -15 49 -46q0 -12 -11 -24zM408 16q-29 -8 -63 -8q-69 0 -94 28l-246 274q-11 12 -11 24q0 31 49 46
q35 12 74 12q69 0 94 -28l247 -274q10 -11 10 -24q0 -34 -60 -50z" />
    <glyph glyph-name="x" unicode="x" horiz-adv-x="864" 
d="M180 365l197 -98l216 98q45 21 106 11q28 -5 53 -17q34 -17 34 -39q0 -25 -36 -40l-212 -88l212 -88q36 -15 36 -41q0 -21 -34 -38q-25 -13 -53 -17q-61 -10 -106 10l-216 98l-197 -98q-42 -20 -106 -10q-28 4 -53 17q-34 17 -34 38q0 24 36 41l192 88l-192 88
q-36 16 -36 40q0 22 34 39q25 12 53 17q65 10 106 -11z" />
    <glyph glyph-name="y" unicode="y" horiz-adv-x="770" 
d="M347 9q-36 0 -70 11q-47 14 -47 43v87l-225 161q-11 7 -11 23q0 31 49 47q35 11 74 11q57 0 94 -28l141 -107l141 107q37 28 94 28q39 0 74 -11q49 -16 49 -47q0 -16 -11 -23l-235 -169v-79q0 -28 -47 -43q-34 -11 -70 -11z" />
    <glyph glyph-name="z" unicode="z" horiz-adv-x="683" 
d="M67 17q-63 17 -63 50q0 14 14 25l291 231h-205q-53 0 -73 3q-36 8 -36 29q0 38 109 38h344q58 0 96 -17t38 -42q0 -14 -14 -25l-291 -230h231q53 0 106 -25q3 -2 3 -12q0 -22 -36 -29q-20 -4 -73 -4h-381q-31 0 -60 8z" />
    <glyph glyph-name="braceleft" unicode="{" horiz-adv-x="572" 
d="M481 18q28 11 28 26q0 17 -29 27l-56 9q-7 1 -88 14q-48 7 -70 20q-52 32 -52 84q0 53 52 85q38 24 158 36q20 1 56 8q30 11 30 27q0 17 -28 27t-58 10q-95 -2 -186 -15q-108 -16 -154 -42q-95 -54 -95 -134q0 -81 94 -135q48 -27 158 -44q103 -17 182 -13q21 2 58 10z
" />
    <glyph glyph-name="bar" unicode="|" horiz-adv-x="319" 
d="M107 -40q-36 0 -70 11q-47 14 -47 43v374q0 29 47 43q34 11 70 11t70 -11q47 -14 47 -43v-374q0 -28 -47 -43q-34 -11 -70 -11z" />
    <glyph glyph-name="braceright" unicode="}" horiz-adv-x="586" 
d="M18 18q-28 11 -28 26q0 17 29 27l56 9q7 1 88 14q48 7 70 20q52 32 52 84q0 53 -52 85q-38 24 -158 36q-20 1 -56 8q-30 11 -30 27q0 17 28 27t58 10q95 -2 186 -15q108 -16 154 -42q95 -54 95 -134q0 -81 -94 -135q-48 -27 -158 -44q-103 -17 -182 -13q-21 2 -58 10z
" />
    <glyph glyph-name="asciitilde" unicode="~" 
d="M831 445v-99h418q41 0 70.5 -29.5t29.5 -70.5v-77q0 -39 33 -70q30 -29 64 -30h-626q-54 -7 -117 -36q-72 -33 -72 -63v99h-387q-41 0 -70.5 29.5t-29.5 70.5v77q0 40 -31.5 70t-68.5 30h601q53 7 115 36q71 33 71 63zM1289 226q0 15 -23 22q-17 6 -34 6h-95
q-21 0 -21 -8q0 -9 21 -9h76q8 0 12.5 -2.5t5.5 -5.5v-7h-79q-57 0 -57 -27v-8q0 -28 57 -28h39q22 0 22 9q0 4 -7.5 6.5t-14.5 2.5h-21q-17 0 -17 8v12q0 3 5 5.5t12 2.5h43q8 0 12.5 -2.5t5.5 -5.5v-25q0 -13 29 -13t29 13v54zM1083 239q0 6 -9 10t-20 4q-30 0 -30 -14
v-68q0 -12 30 -14q12 1 20.5 4.5t8.5 9.5v68zM1011 223v7q0 24 -62 24h-73q-54 0 -56 -25q-1 -1 -1 -2v-54q0 -13 29 -13q28 0 29 13l1 59q0 5 17 5h43q18 0 18 -5v-11q0 -8 -18 -8h-24q-21 -1 -21 -9q0 -9 21 -9h40q57 0 57 28zM609 225v-39q0 -14 23 -22q17 -6 34 -6h80
q17 0 35 6q23 8 23 22v39q0 15 -23 22q-17 6 -35 6h-80q-57 0 -57 -28zM667 185v43q0 3 5 5.5t13 2.5h43q7 0 12 -2.5t5 -5.5v-43q0 -9 -17 -9h-43q-7 0 -12.5 2.5t-5.5 6.5zM574 234q27 0 27 8q0 3 -1 4l-4 1q-8 5 -22 5h-140q-27 0 -27 -10q0 -8 27 -8h41v-64
q0 -14 29 -14t29 14v64h41zM393 241q-1 13 -29 13q-29 0 -29 -13l-1 -56q0 -3 -4.5 -5.5t-12.5 -2.5h-31q-7 0 -12 2.5t-5 5.5v56q-1 13 -29 13q-30 0 -30 -13l1 -54q0 -28 57 -28h67q57 0 57 28z" />
    <glyph glyph-name="glyph98" horiz-adv-x="405" 
 />
    <glyph glyph-name="glyph99" horiz-adv-x="405" 
 />
    <glyph glyph-name="glyph4" horiz-adv-x="405" 
 />
    <glyph glyph-name="glyph65" horiz-adv-x="405" 
 />
    <glyph glyph-name="glyph66" horiz-adv-x="405" 
 />
    </font>
</defs>
</svg>
